<svg width="36" height="40" viewBox="0 0 36 40" fill="none" xmlns="http://www.w3.org/2000/svg">
<path d="M1.07284 17.8123C-0.598547 21.0687 -0.195771 23.9212 1.44469 25.5616C3.46704 27.7526 -0.128682 23.3706 13.13 15.337C23.737 8.91005 21.6881 2.43444 19.3378 0C19.3378 2.39371 18.3901 4.41966 16.8811 6.05274C12.3513 10.9548 4.12063 11.8744 1.07284 17.8123Z" fill="#EE0034"/>
<path d="M8.42184 24.3851C6.75045 27.6414 7.15323 30.4939 8.79369 32.1344C10.816 34.3254 7.22032 29.9434 20.479 21.9097C31.086 15.4828 29.0371 9.00719 26.6868 6.57275C26.6868 8.96647 25.7391 10.9924 24.2301 12.6255C19.7003 17.5275 11.4696 18.4472 8.42184 24.3851Z" fill="#EE0034"/>
<path d="M15.7708 31.6888C14.0995 34.9451 14.5022 37.7976 16.1427 39.4381C18.165 41.6291 14.5693 37.2471 27.828 29.2134C38.435 22.7865 36.3861 16.3109 34.0358 13.8765C34.0358 16.2702 33.0881 18.2961 31.5791 19.9292C27.0493 24.8312 18.8186 25.7509 15.7708 31.6888Z" fill="#EE0034"/>
</svg>
